# xmcd
#
# Track frame offsets:
# 150
# 12727
# 24720
# 43073
# 61595
# 77251
# 92809
# 108207
# 123483
# 137143
# 157052
# 175201
#
# Disc length: 2471 seconds
#
# Revision: 0
# Processed by: cddbd v1.5.2PL0 Copyright (c) Steve Scherf et al.
# Submitted via: Audion 3.0.2 (http://www.panic.com/audion/)
#
DISCID=9809a50c
DTITLE=Johnnie Taylor - Super Hits
DYEAR=1900
DGENRE=
TTITLE0=Who´s making love
TTITLE1=Take care of your homework
TTITLE2=Testify
TTITLE3=Love Bones
TTITLE4=Steal Away
TTITLE5=Cheaper to keep her
TTITLE6=I am somebody part1
TTITLE7=I am somebody part2
TTITLE8=Jody´s got your girl and gone
TTITLE9=I believe in you
TTITLE10=we´re getting careless with our love
TTITLE11=I could never be president
EXTD=
EXTT0=
EXTT1=
EXTT2=
EXTT3=
EXTT4=
EXTT5=
EXTT6=
EXTT7=
EXTT8=
EXTT9=
EXTT10=
EXTT11=
PLAYORDER=
